<svg xmlns="http://www.w3.org/2000/svg" width="24" height="24" viewBox="0 0 24 24">
<path fill="#FFFFFF" fill-opacity="0.4" fill-rule="evenodd" d="M6.65 12.6 L6.43 12.66 L6.29 12.73 L6.17 12.83 L3.91 15.09 L3.79 15.29 L3.74 15.52 L3.74 15.68 L3.79 15.91 L3.87 16.04 L3.97 16.17 L6.17 18.37 L6.35 18.51 L6.5 18.57 L6.73 18.6 L8.8 18.6 L8.8 12.6 Z M18.2 18.6 L18.43 18.57 L18.58 18.51 L18.71 18.42 L18.82 18.31 L18.91 18.18 L18.97 18.03 L19 17.88 L19 13.4 L18.97 13.17 L18.91 13.02 L18.82 12.89 L18.64 12.73 L18.51 12.66 L18.28 12.6 L15.2 12.6 L15.2 18.6 Z"/>
<path fill="#FFFFFF" fill-rule="evenodd" d="M5.72 4 L5.49 4.06 L5.36 4.13 L5.23 4.23 L5.09 4.42 L5.03 4.57 L5 4.72 L5 9.6 L5.02 9.76 L5.06 9.91 L5.13 10.04 L5.29 10.22 L5.49 10.34 L5.72 10.4 L10.8 10.4 L10.8 20.4 L10.82 20.63 L10.89 20.86 L11 21.07 L11.24 21.33 L11.43 21.46 L11.65 21.55 L11.88 21.59 L12.12 21.59 L12.46 21.51 L12.76 21.33 L13 21.07 L13.11 20.86 L13.19 20.52 L13.2 10.4 L17.27 10.4 L17.42 10.38 L17.65 10.31 L17.83 10.17 L20.29 7.71 L20.41 7.51 L20.46 7.28 L20.46 7.12 L20.41 6.89 L20.33 6.76 L20.23 6.63 L17.83 4.23 L17.71 4.13 L17.57 4.06 L17.42 4.02 L17.27 4 L13.2 4 L13.19 3.28 L13.15 3.05 L13.06 2.83 L12.93 2.64 L12.76 2.47 L12.46 2.29 L12.23 2.22 L11.88 2.21 L11.54 2.29 L11.24 2.47 L11.07 2.64 L10.89 2.94 L10.82 3.17 L10.8 3.4 L10.8 4 Z"/>
</svg>
