<svg xmlns="http://www.w3.org/2000/svg" width="24" height="24" viewBox="0 0 24 24">
<path fill="#FFFFFF" fill-rule="evenodd" d="M21.75 11.04 L21.61 10.09 L21.38 9.16 L21.05 8.25 L20.64 7.38 L20.15 6.56 L19.58 5.78 L18.93 5.07 L18.22 4.42 L17.44 3.85 L16.62 3.36 L15.75 2.95 L14.84 2.62 L13.91 2.39 L12.96 2.25 L12 2.2 L11.04 2.25 L10.09 2.39 L9.16 2.62 L8.25 2.95 L7.38 3.36 L6.56 3.85 L5.78 4.42 L5.07 5.07 L4.42 5.78 L3.85 6.56 L3.36 7.38 L2.95 8.25 L2.62 9.16 L2.39 10.09 L2.25 11.04 L2.2 12 L2.25 12.96 L2.39 13.91 L2.62 14.84 L2.95 15.75 L3.36 16.62 L3.85 17.44 L4.42 18.22 L5.07 18.93 L5.78 19.58 L6.56 20.15 L7.38 20.64 L8.25 21.05 L9.16 21.38 L10.09 21.61 L11.04 21.75 L12 21.8 L12.96 21.75 L13.91 21.61 L14.84 21.38 L15.75 21.05 L16.62 20.64 L17.44 20.15 L18.22 19.58 L18.93 18.93 L19.58 18.22 L20.15 17.44 L20.64 16.62 L21.05 15.75 L21.38 14.84 L21.61 13.91 L21.75 12.96 L21.8 12 Z M13.2 9.9 L13.2 17.6 L13.18 17.83 L13.11 18.06 L13 18.27 L12.85 18.45 L12.67 18.6 L12.46 18.71 L12.23 18.78 L12 18.8 L11.77 18.78 L11.43 18.66 L11.15 18.45 L11 18.27 L10.89 18.06 L10.81 17.72 L10.8 9.9 L8.25 12.45 L8.07 12.6 L7.75 12.75 L7.52 12.79 L7.17 12.78 L6.94 12.71 L6.64 12.53 L6.47 12.36 L6.29 12.06 L6.21 11.72 L6.22 11.37 L6.34 11.03 L6.55 10.75 L11.15 6.15 L11.33 6 L11.54 5.89 L11.77 5.82 L12.12 5.81 L12.46 5.89 L12.67 6 L12.85 6.15 L17.53 10.84 L17.71 11.14 L17.79 11.48 L17.78 11.83 L17.66 12.17 L17.53 12.36 L17.36 12.53 L17.17 12.66 L16.95 12.75 L16.72 12.79 L16.48 12.79 L16.25 12.75 L16.03 12.66 L15.75 12.45 Z"/>
</svg>
