<svg xmlns="http://www.w3.org/2000/svg" width="24" height="24" viewBox="0 0 24 24">
<path fill="#FFFFFF" fill-rule="evenodd" d="M17.7 8.2 L17.66 7.54 L17.59 7.08 L17.44 6.5 L17.18 5.82 L16.9 5.29 L16.65 4.91 L16.19 4.34 L15.86 4.01 L15.4 3.63 L14.91 3.3 L14.26 2.97 L13.7 2.76 L13.25 2.64 L12.53 2.53 L12.07 2.5 L11.47 2.53 L10.75 2.64 L10.3 2.76 L9.74 2.97 L9.09 3.3 L8.6 3.63 L8.24 3.92 L7.81 4.34 L7.35 4.91 L7.03 5.41 L6.77 5.94 L6.6 6.37 L6.44 6.95 L6.34 7.54 L6.3 8.13 L6.3 10.02 L5.96 10.09 L5.56 10.26 L5.38 10.37 L5.04 10.64 L4.77 10.98 L4.66 11.16 L4.57 11.36 L4.44 11.77 L4.4 12.2 L4.41 19.62 L4.44 19.83 L4.57 20.24 L4.77 20.62 L5.04 20.96 L5.38 21.23 L5.76 21.43 L6.17 21.56 L6.6 21.6 L17.62 21.59 L17.83 21.56 L18.24 21.43 L18.62 21.23 L18.96 20.96 L19.23 20.62 L19.43 20.24 L19.56 19.83 L19.59 19.62 L19.59 11.98 L19.56 11.77 L19.43 11.36 L19.23 10.98 L18.96 10.64 L18.62 10.37 L18.44 10.26 L18.04 10.09 L17.7 10.02 Z M9.05 7.24 L9.17 6.94 L9.32 6.65 L9.49 6.38 L9.7 6.13 L9.93 5.9 L10.18 5.69 L10.45 5.52 L10.74 5.37 L11.04 5.25 L11.36 5.17 L11.68 5.12 L12 5.1 L12.32 5.12 L12.64 5.17 L12.96 5.25 L13.26 5.37 L13.55 5.52 L13.82 5.69 L14.07 5.9 L14.3 6.13 L14.51 6.38 L14.68 6.65 L14.83 6.94 L14.95 7.24 L15.03 7.56 L15.08 7.88 L15.1 8.23 L15.1 10 L8.9 10 L8.9 8.23 L8.92 7.88 L8.97 7.56 Z M13.79 14.78 L13.72 15.12 L13.66 15.29 L13.5 15.6 L13.39 15.74 L13.14 15.99 L12.8 16.21 L12.8 17.68 L12.74 17.91 L12.67 18.04 L12.57 18.17 L12.44 18.27 L12.31 18.34 L12.16 18.38 L12 18.4 L11.84 18.38 L11.69 18.34 L11.56 18.27 L11.43 18.17 L11.33 18.04 L11.26 17.91 L11.22 17.76 L11.2 16.21 L10.86 15.99 L10.61 15.74 L10.41 15.45 L10.28 15.12 L10.23 14.95 L10.2 14.6 L10.23 14.25 L10.34 13.91 L10.5 13.6 L10.73 13.33 L11 13.1 L11.15 13.01 L11.48 12.88 L11.65 12.83 L12 12.8 L12.35 12.83 L12.52 12.88 L12.85 13.01 L13 13.1 L13.27 13.33 L13.5 13.6 L13.66 13.91 L13.77 14.25 L13.8 14.6 Z"/>
</svg>
